<?xml version="1.0" encoding="UTF-8" standalone="no"?>
<svg
   xmlns:dc="http://purl.org/dc/elements/1.1/"
   xmlns:cc="http://creativecommons.org/ns#"
   xmlns:rdf="http://www.w3.org/1999/02/22-rdf-syntax-ns#"
   xmlns:svg="http://www.w3.org/2000/svg"
   xmlns="http://www.w3.org/2000/svg"
   xmlns:xlink="http://www.w3.org/1999/xlink"
   xmlns:sodipodi="http://sodipodi.sourceforge.net/DTD/sodipodi-0.dtd"
   xmlns:inkscape="http://www.inkscape.org/namespaces/inkscape"
   version="1.0"
   width="1280.000000pt"
   height="1196.000000pt"
   viewBox="0 0 1280.000000 1196.000000"
   preserveAspectRatio="xMidYMid meet"
   id="svg14"
   sodipodi:docname="sunMarvel.svg"
   inkscape:version="0.92.4 (5da689c313, 2019-01-14)">
  <defs
     id="defs18">
    <linearGradient
       inkscape:collect="always"
       id="linearGradient854">
      <stop
         style="stop-color:#f9f301;stop-opacity:1;"
         offset="0"
         id="stop850" />
      <stop
         style="stop-color:#f9f301;stop-opacity:0;"
         offset="1"
         id="stop852" />
    </linearGradient>
    <radialGradient
       inkscape:collect="always"
       xlink:href="#linearGradient854"
       id="radialGradient856"
       cx="6413.5041"
       cy="5971.6996"
       fx="6413.5041"
       fy="5971.6996"
       r="4250.5403"
       gradientTransform="matrix(1,0,0,0.93557509,0,384.7262)"
       gradientUnits="userSpaceOnUse" />
    <filter
       inkscape:collect="always"
       style="color-interpolation-filters:sRGB"
       id="filter1090"
       x="-0.039485732"
       width="1.0789715"
       y="-0.04220477"
       height="1.0844095">
      <feGaussianBlur
         inkscape:collect="always"
         stdDeviation="139.86308"
         id="feGaussianBlur1092" />
    </filter>
  </defs>
  <sodipodi:namedview
     pagecolor="#ffffff"
     bordercolor="#666666"
     borderopacity="1"
     objecttolerance="10"
     gridtolerance="10"
     guidetolerance="10"
     inkscape:pageopacity="0"
     inkscape:pageshadow="2"
     inkscape:window-width="1920"
     inkscape:window-height="1027"
     id="namedview16"
     showgrid="false"
     inkscape:zoom="0.41858829"
     inkscape:cx="494.39774"
     inkscape:cy="977.01157"
     inkscape:window-x="-8"
     inkscape:window-y="-8"
     inkscape:window-maximized="1"
     inkscape:current-layer="g12" />
  <metadata
     id="metadata2">
Created by potrace 1.15, written by Peter Selinger 2001-2017, under public domain
<rdf:RDF>
  <cc:Work
     rdf:about="">
    <dc:format>image/svg+xml</dc:format>
    <dc:type
       rdf:resource="http://purl.org/dc/dcmitype/StillImage" />
  </cc:Work>
</rdf:RDF>
</metadata>
  <g
     transform="matrix(0.13831486,0,0,-0.13757167,-247.52427,1417.6791)"
     id="g12"
     style="fill:#ffff00;fill-opacity:1;stroke:none">
    <path
       d="m 7724,9910 c -15,-22 -31,-40 -36,-40 -13,0 -83,-113 -208,-335 -102,-182 -191,-321 -241,-374 -25,-27 -53,-27 -80,0 -20,20 -20,26 -13,318 7,315 3,364 -36,376 -27,8 -59,-11 -71,-43 -6,-15 -31,-115 -55,-222 -49,-215 -71,-290 -85,-290 -5,0 -9,17 -9,38 0,48 -15,100 -36,123 -15,16 -18,17 -39,3 -13,-8 -28,-27 -34,-42 -6,-15 -36,-157 -65,-315 -30,-158 -60,-295 -67,-303 -30,-36 -84,9 -96,80 -3,21 0,82 7,136 18,138 17,142 -103,245 -43,37 -43,35 -148,543 -6,33 -22,66 -38,84 l -27,30 -15,-23 c -27,-42 -29,-69 -14,-259 17,-211 19,-350 6,-350 -5,0 -19,17 -31,38 -12,20 -28,41 -36,45 -8,4 -14,17 -14,28 0,11 -4,17 -10,14 -5,-3 -10,-17 -10,-30 0,-13 -4,-27 -10,-30 -6,-4 -10,-53 -10,-115 0,-178 -17,-162 -135,124 -157,382 -237,545 -275,566 -25,14 -68,3 -80,-20 -13,-25 -13,-85 2,-201 11,-95 11,-96 -14,-130 -14,-19 -28,-42 -31,-51 -3,-9 19,-162 49,-340 31,-178 59,-363 64,-413 5,-49 13,-115 18,-145 11,-75 3,-104 -30,-108 -22,-3 -30,3 -46,35 -24,47 -43,136 -40,185 2,21 4,38 5,38 0,0 19,-29 42,-64 70,-111 63,-82 -10,46 -39,68 -77,139 -84,159 -16,45 -56,109 -80,129 -10,8 -25,27 -34,41 -15,25 -16,23 -19,-65 -1,-49 -6,-94 -11,-99 -5,-5 -20,-7 -34,-4 -34,9 -61,65 -170,347 -145,379 -184,466 -226,507 l -36,35 -7,-34 c -10,-46 2,-90 94,-368 71,-212 82,-253 80,-308 -1,-45 10,-106 38,-217 43,-165 47,-195 27,-195 -27,0 -227,205 -666,683 -167,182 -187,200 -232,211 -24,5 -26,3 -27,-28 -2,-39 21,-77 147,-246 58,-77 94,-136 101,-163 17,-70 44,-117 136,-242 419,-570 436,-597 419,-624 -9,-16 -52,-13 -79,4 -34,22 -100,120 -127,189 -34,85 -54,96 -175,100 -106,4 -142,14 -273,81 -38,19 -85,35 -103,37 -18,1 -42,6 -52,11 -16,8 -18,6 -12,-8 6,-16 1,-17 -63,-11 -38,3 -125,22 -193,42 -68,20 -168,50 -223,66 -55,16 -120,31 -145,33 -25,2 -63,7 -85,10 l -40,6 30,-17 c 17,-9 44,-28 60,-42 37,-31 128,-73 367,-169 103,-41 199,-84 212,-94 26,-21 25,-49 -1,-49 -10,0 -5,-12 16,-39 35,-44 146,-105 246,-135 98,-30 185,-73 185,-91 0,-20 -20,-15 -100,25 -138,69 -318,130 -383,130 -36,0 -67,-27 -67,-58 0,-12 232,-249 318,-324 24,-21 42,-45 42,-57 0,-24 -46,-51 -86,-51 -31,0 -135,62 -209,125 -126,106 -826,525 -902,539 -11,2 -61,29 -113,58 -120,69 -140,80 -140,74 0,-3 50,-37 110,-77 61,-39 114,-77 118,-83 7,-12 120,-93 300,-216 51,-34 98,-72 104,-83 10,-19 8,-20 -43,-14 -30,3 -227,55 -439,115 -358,102 -516,141 -565,139 -11,0 -40,3 -65,6 l -45,7 40,-19 c 22,-10 57,-30 78,-44 46,-32 168,-80 500,-198 139,-49 263,-98 277,-109 67,-54 112,-76 335,-166 132,-52 252,-102 266,-110 34,-17 79,-70 79,-94 0,-44 -9,-44 -477,19 -602,82 -932,120 -1085,125 -69,3 -144,8 -165,12 -26,4 -35,3 -28,-4 6,-6 53,-18 105,-27 52,-9 99,-20 105,-24 5,-5 26,-11 45,-15 137,-26 409,-72 655,-110 286,-44 345,-57 345,-75 0,-16 -28,-21 -249,-47 -118,-14 -224,-30 -235,-36 -37,-20 -46,-39 -29,-65 17,-26 41,-34 198,-68 66,-14 141,-37 167,-50 26,-14 89,-34 140,-45 126,-27 198,-49 198,-59 0,-20 -82,-24 -660,-30 -426,-5 -613,-11 -633,-19 -16,-7 -45,-12 -65,-12 -20,0 -44,-5 -52,-10 -11,-7 -7,-10 17,-10 18,0 52,-7 75,-15 55,-18 177,-32 401,-45 97,-6 188,-15 201,-20 63,-24 211,-40 601,-65 232,-16 308,-26 319,-44 9,-14 -43,-29 -139,-41 -104,-12 -505,-44 -745,-60 -477,-30 -492,-32 -531,-68 -20,-19 -20,-19 8,-38 33,-21 157,-33 373,-33 87,-1 173,-7 216,-16 50,-10 190,-18 466,-25 217,-5 402,-12 411,-16 25,-9 20,-42 -14,-96 -46,-71 -109,-122 -176,-142 -87,-26 -107,-35 -162,-70 -45,-29 -68,-35 -233,-60 -216,-32 -488,-81 -573,-102 -33,-9 -77,-27 -98,-42 l -38,-26 45,-11 c 58,-15 187,-1 548,59 167,28 281,52 313,66 67,30 156,35 376,21 178,-12 229,-23 229,-51 0,-25 -81,-46 -560,-150 -283,-61 -555,-122 -605,-135 -49,-14 -200,-47 -335,-75 -249,-51 -410,-94 -410,-109 0,-5 -17,-12 -38,-16 -92,-15 -53,-23 104,-20 121,2 231,11 389,33 121,17 254,33 295,37 41,4 166,17 276,31 111,13 217,24 236,24 41,0 61,-19 78,-75 16,-53 52,-114 84,-144 32,-30 33,-59 4,-70 -13,-5 -149,-34 -303,-66 -445,-90 -574,-122 -639,-156 -41,-21 -118,-43 -255,-74 -222,-49 -241,-55 -270,-86 l -21,-23 22,-20 c 37,-34 107,-28 698,60 310,46 552,89 677,120 63,15 113,22 130,18 35,-9 103,-42 126,-62 42,-37 29,-51 -283,-297 -526,-414 -675,-539 -690,-579 -20,-54 23,-81 97,-62 71,19 230,77 480,176 258,102 283,110 283,83 0,-23 -53,-74 -185,-180 -117,-94 -127,-104 -131,-142 -3,-24 1,-30 21,-35 35,-9 68,7 317,155 225,134 272,158 284,146 10,-10 -356,-382 -483,-491 -111,-95 -176,-163 -168,-176 10,-16 -95,-87 -108,-74 -8,8 -98,-40 -224,-118 -117,-73 -127,-81 -137,-113 -10,-36 62,-57 121,-34 66,25 248,180 274,234 19,38 54,62 115,78 45,12 271,145 457,269 43,29 66,38 90,36 75,-7 44,-64 -244,-459 -75,-101 -151,-206 -169,-234 -19,-27 -99,-132 -178,-233 -171,-217 -212,-277 -212,-306 0,-12 -5,-27 -12,-34 -9,-9 -9,-12 -1,-12 7,0 14,4 17,9 3,4 20,11 38,15 25,5 109,83 393,364 556,553 702,688 721,669 15,-14 -14,-65 -160,-289 -85,-130 -167,-260 -181,-289 -15,-29 -50,-89 -79,-133 -122,-189 -147,-254 -110,-290 25,-25 57,-19 121,24 72,48 308,244 574,476 349,305 379,327 379,279 0,-23 -84,-166 -410,-695 -212,-346 -230,-380 -230,-439 0,-40 -8,-62 -52,-132 -87,-141 -147,-251 -153,-280 -13,-59 32,-91 87,-63 143,73 806,900 914,1139 12,28 25,79 29,115 4,36 15,81 25,101 22,41 65,66 86,48 21,-17 17,-53 -16,-164 -17,-55 -47,-161 -66,-234 -33,-122 -35,-143 -29,-215 6,-80 6,-83 -65,-311 -99,-319 -128,-437 -128,-515 v -65 l 16,33 c 9,17 19,32 24,32 17,0 78,143 223,530 193,512 303,790 323,813 22,25 44,21 88,-14 22,-17 56,-40 77,-50 62,-32 63,-50 12,-214 -46,-147 -53,-192 -35,-225 13,-24 38,-17 80,21 18,17 35,27 38,24 9,-8 -19,-112 -83,-309 -69,-212 -71,-273 -10,-261 11,2 23,4 28,4 12,1 63,85 257,426 189,330 238,410 247,401 11,-10 -81,-212 -313,-687 -111,-227 -157,-333 -164,-373 -5,-31 -12,-62 -15,-69 -4,-6 5,0 19,16 14,15 29,27 35,27 18,0 76,81 306,425 125,187 237,351 250,364 30,31 49,23 68,-31 88,-240 124,-329 148,-364 16,-23 60,-123 98,-221 76,-197 101,-252 126,-273 41,-34 75,-16 75,40 0,64 -224,809 -307,1019 -50,129 -50,124 6,261 33,79 60,110 95,110 65,0 157,-50 201,-110 28,-38 28,-37 172,-430 115,-315 138,-370 158,-370 8,0 17,-9 20,-21 l 7,-21 19,21 c 38,41 42,35 149,-233 90,-227 104,-254 138,-267 23,-9 29,-7 45,13 15,18 18,32 13,73 -9,68 -59,259 -167,638 -90,312 -91,318 -73,338 16,18 26,20 74,15 30,-3 82,-20 115,-36 77,-37 235,-164 402,-322 73,-68 149,-133 170,-144 21,-10 48,-27 61,-38 25,-22 30,-12 7,14 -9,10 -18,28 -20,40 -6,31 -40,82 -155,230 -182,235 -310,419 -310,446 0,24 26,15 77,-24 26,-22 185,-159 353,-307 168,-147 337,-288 375,-313 39,-25 135,-100 215,-168 256,-215 280,-235 316,-259 53,-36 94,-25 94,25 0,50 -142,239 -554,735 -285,343 -324,391 -419,517 -94,124 -137,194 -137,221 0,19 40,55 77,68 45,15 69,-1 85,-57 28,-99 106,-114 364,-68 42,8 94,-35 94,-77 0,-38 20,-76 57,-110 47,-44 704,-379 750,-383 22,-2 45,-6 52,-10 40,-25 -32,71 -85,113 -26,20 -171,119 -323,221 -221,148 -277,190 -279,210 -3,19 7,35 47,70 28,25 53,57 57,72 5,25 3,27 -31,34 -26,5 -61,-1 -123,-19 -173,-50 -188,-53 -227,-34 -41,19 -51,40 -60,123 -15,140 -43,188 -149,250 -64,37 -86,64 -78,96 5,23 44,33 79,20 16,-5 164,-73 330,-151 166,-78 366,-168 445,-200 79,-32 229,-97 335,-145 263,-118 312,-128 342,-73 39,74 -132,237 -546,521 -79,53 -148,106 -154,117 -27,52 21,64 92,24 126,-72 167,-81 419,-90 91,-3 217,-13 280,-21 112,-15 241,-16 256,-1 4,4 -8,22 -27,40 -24,23 -63,42 -135,65 -102,32 -154,62 -154,87 0,15 52,58 185,152 121,86 213,187 334,372 36,56 67,116 76,150 8,31 24,88 36,126 44,150 50,185 56,315 12,273 -33,462 -146,617 -36,50 -69,69 -136,78 -92,12 -105,16 -135,47 -41,40 -39,71 8,116 80,77 95,79 340,42 212,-32 287,-37 297,-20 3,6 15,10 26,10 19,0 18,3 -8,30 -33,36 -57,44 -348,110 -121,28 -264,64 -318,80 -115,36 -326,135 -334,157 -15,40 43,77 290,187 175,78 199,93 211,131 5,16 0,23 -22,31 -36,13 -64,8 -420,-66 -282,-59 -304,-62 -320,-46 -27,27 2,42 124,65 190,36 274,75 274,127 0,35 -30,62 -100,88 -117,43 -90,57 159,81 196,18 284,32 320,51 14,8 38,14 53,14 47,0 40,18 -10,23 -26,3 -81,11 -122,17 -43,6 -193,9 -350,8 -283,-2 -330,3 -372,40 -48,42 -1,129 252,467 74,99 140,192 146,205 15,33 33,90 29,90 -2,0 -27,-12 -55,-27 -40,-21 -115,-92 -319,-306 -146,-153 -319,-336 -383,-405 -65,-70 -130,-132 -145,-139 -42,-18 -77,-15 -107,8 -49,38 -36,73 114,299 44,67 80,131 80,143 0,12 3,33 7,47 6,25 6,25 -15,6 -12,-11 -22,-16 -22,-12 0,20 -65,-33 -138,-113 -48,-52 -91,-91 -102,-91 -23,0 -110,171 -110,217 0,44 30,76 115,123 53,29 92,61 137,112 77,87 183,173 493,398 152,111 273,208 330,264 49,50 81,86 70,82 -11,-5 -47,-19 -80,-31 -94,-35 -179,-86 -605,-359 -257,-165 -267,-171 -318,-171 -30,0 -56,5 -60,12 -4,6 -20,15 -35,18 -16,4 -31,13 -33,20 -3,7 11,45 31,85 29,58 35,80 30,106 -5,30 -9,33 -34,30 -15,-1 -48,-15 -74,-30 -27,-16 -47,-23 -47,-16 0,20 64,109 216,300 218,272 214,267 214,306 0,31 -3,34 -28,34 -40,0 -91,-36 -312,-219 -107,-90 -205,-168 -218,-174 -26,-12 -59,2 -55,22 5,21 -62,11 -100,-15 -54,-36 -70,-29 -84,36 -7,30 -20,79 -29,109 l -16,53 28,29 c 15,16 23,29 17,29 -6,0 -22,-13 -36,-30 -22,-25 -27,-27 -38,-14 -17,20 -3,63 72,221 99,207 165,356 173,385 8,35 -12,68 -41,68 -34,0 -82,-48 -229,-229 -75,-91 -145,-173 -156,-181 -19,-13 -22,-12 -43,12 -17,20 -29,25 -46,21 -36,-9 -39,-12 -178,-197 -149,-198 -165,-215 -189,-200 -25,16 -33,63 -22,132 13,78 23,104 154,384 121,259 166,368 166,402 0,13 7,40 15,60 20,47 12,46 -21,-4 z M 6306,9063 c 27,-32 33,-83 9,-83 -27,0 -55,38 -55,75 0,42 14,45 46,8 z m 910,-172 c 17,-70 15,-110 -11,-165 -19,-39 -41,-52 -61,-35 -28,23 -7,224 28,266 16,20 25,6 44,-66 z M 5589,7732 c -24,-16 -71,-53 -104,-82 -34,-31 -45,-38 -26,-17 l 35,37 h -52 c -90,0 -151,-36 -327,-195 -153,-138 -239,-228 -285,-295 -65,-95 -244,-469 -284,-592 -57,-175 -69,-300 -62,-638 3,-157 10,-328 16,-380 25,-215 170,-544 350,-795 78,-108 231,-258 247,-242 9,10 -18,78 -97,247 -122,259 -179,424 -225,655 -58,288 -61,607 -9,915 38,220 119,494 180,608 19,35 32,67 29,72 -3,5 3,11 14,15 12,4 17,12 14,24 -3,11 5,24 22,35 16,11 24,23 21,32 -3,8 1,17 9,20 8,4 15,14 15,24 0,10 6,20 14,23 8,3 12,14 9,25 -3,13 4,24 22,36 16,10 24,23 21,32 -3,8 5,21 19,30 14,9 25,24 25,34 0,10 16,30 35,45 26,20 34,32 30,46 -5,14 -2,19 13,19 11,0 31,9 46,21 39,31 32,15 -22,-44 -89,-98 -222,-302 -222,-340 0,-8 -10,-22 -22,-33 -44,-39 -150,-300 -203,-501 -99,-375 -113,-793 -39,-1168 66,-338 200,-649 395,-918 49,-66 49,-67 22,-61 -109,26 -301,206 -432,404 -137,208 -243,444 -293,650 -17,70 -21,134 -27,355 -8,355 0,511 33,641 51,199 114,362 202,519 30,55 76,137 101,183 41,76 58,94 187,205 77,67 176,154 218,193 63,58 95,78 169,110 75,31 205,69 253,73 6,1 -10,-12 -35,-27 z m -709,-752 c -23,-51 -61,-152 -85,-224 -24,-72 -45,-124 -45,-115 0,44 154,449 166,436 2,-2 -14,-45 -36,-97 z m -201,-806 c -10,-144 -8,-445 6,-639 4,-57 3,-63 -5,-30 -5,22 -14,135 -21,252 -10,164 -10,248 -1,375 12,154 20,214 28,205 2,-2 -1,-75 -7,-163 z m 5455,-370 c 17,-16 20,-41 10,-68 -10,-25 -51,-19 -70,9 -33,50 19,100 60,59 z M 4703,5395 c 5,-28 4,-34 -3,-20 -8,19 -14,73 -6,64 2,-2 6,-22 9,-44 z"
       id="path4"
       style="opacity:0.78399999;fill:url(#radialGradient856);fill-opacity:1;filter:url(#filter1090)"
       inkscape:connector-curvature="0" />
    <rect
       style="fill:#ed1d24;stroke-width:6.81387043"
       x="2961.0205"
       y="-7565.438"
       width="6795.5396"
       height="2749.7961"
       id="rect2"
       transform="scale(1,-1)" />
    <g
       transform="matrix(6.7955396,0,0,-6.8322505,4423.3536,6973.7091)"
       id="g6">
      <path
         style="fill:#ffffff"
         inkscape:connector-curvature="0"
         d="M 631.063,7.184 V -54.419 H 459.644 L 431.453,151.384 403.557,-54.418 H 341.74 l 6.925,54.915 c -7.14,-14.068 -32.449,-54.915 -88.146,-54.915 -0.367,-0.024 -61.901,0 -61.901,0 L 198.381,245.556 153.324,-54.418 72.365,-54.465 25.753,256.349 25.777,-54.42 h -77.483 l -27.933,174.585 -27.208,-174.583 h -77.508 v 337.906 h 61.036 v -162.87 l 27.764,162.866 h 32.449 L -35.732,120.618 V 283.484 H 81.935 l 7.14,-51.995 h 47.374 l 7.116,51.995 115.521,0.071 h 0.094 v -0.071 h 0.072 0.072 V 173.799 l 14.162,-2.063 29.319,111.819 h 0.072 59.61 0.07 l -0.024,-0.071 h 0.106 0.072 L 324.236,152.427 C 343.734,138.005 365.749,101.38 359.89,66.343 V 66.32 c 0.07,0.474 36.316,217.38 36.316,217.38 L 467.271,283.484 515.83,-22.8 v 306.285 h 115.236 v -60.773 h -54.7 v -77.496 h 54.7 V 83.518 h -54.7 V 7.184 Z M 96.265,177.905 113.023,33.444 l 17.4,144.461 z m 177.419,-66.704 c -4.697,2.278 -9.595,3.417 -14.363,3.417 V 5.927 c 0.083,0 0.179,-0.022 0.297,-0.022 4.78,-0.024 40.419,1.446 40.419,53.774 0,27.373 -12.121,44.62 -26.353,51.522 m 480.36,111.464 v 60.772 H 641.63 V -54.465 h 60.526 v 277.13 z"
         id="path4-7" />
    </g>
  </g>
</svg>
